<svg version="1.2" xmlns="http://www.w3.org/2000/svg" viewBox="0 0 40 40" width="40" height="40">
	<title>logo-svg</title>
	<style>
		.s0 { fill: #3a724f } 
		.s1 { fill: #dc8e43 } 
		.s2 { fill: #14424c } 
		.s3 { fill: #c85d1b } 
	</style>
	<path fill-rule="evenodd" class="s0" d="m21.9 4.6l2.6-4.6 7.5 4.3-2.7 4.6c-0.4 0.8 0.3 1.8 1.2 1.6l5-1 1.7 8.5-5.1 1c-8.2 1.5-14.4-7.2-10.2-14.4z"/>
	<path fill-rule="evenodd" class="s1" d="m17.3 35.4l-2.6 4.6-7.5-4.3 2.6-4.6c0.5-0.8-0.2-1.8-1.1-1.6l-5.1 1-1.6-8.5 5.1-1c8.1-1.5 14.4 7.2 10.2 14.4z"/>
	<path fill-rule="evenodd" class="s2" d="m17.5 4.6l-2.6-4.6-7.5 4.3 2.7 4.6c0.4 0.8-0.3 1.8-1.2 1.6l-5-1-1.7 8.5 5.1 1c8.2 1.5 14.4-7.2 10.2-14.4z"/>
	<path fill-rule="evenodd" class="s3" d="m21.6 35.4l2.7 4.6 7.5-4.3-2.7-4.6c-0.4-0.8 0.3-1.8 1.2-1.6l5 1 1.6-8.5-5-1c-8.2-1.5-14.4 7.2-10.3 14.4z"/>
</svg>